<svg xmlns="http://www.w3.org/2000/svg" xmlns:xlink="http://www.w3.org/1999/xlink" width="25" height="25" viewBox="0 0 25 25">
  <defs>
    <clipPath id="clip-path">
      <rect id="Rectangle_1303" data-name="Rectangle 1303" width="25" height="25" transform="translate(0 0.147)"/>
    </clipPath>
  </defs>
  <g id="cms" transform="translate(0 -0.147)" clip-path="url(#clip-path)">
    <path id="content-marketing" d="M15.137,25H5.859A5.866,5.866,0,0,1,0,19.141V5.859A5.866,5.866,0,0,1,5.859,0H19.141A5.866,5.866,0,0,1,25,5.859V15.21a.977.977,0,0,1-1.953,0V5.859a3.911,3.911,0,0,0-3.906-3.906H5.859A3.911,3.911,0,0,0,1.953,5.859V19.141a3.911,3.911,0,0,0,3.906,3.906h9.277a.977.977,0,0,1,0,1.953Zm4.98-18.848a.977.977,0,0,0-.977-.977H10.205a.977.977,0,0,0,0,1.953h8.936A.977.977,0,0,0,20.117,6.152Zm0,3.906a.977.977,0,0,0-.977-.977H5.859a.977.977,0,0,0,0,1.953H19.141A.977.977,0,0,0,20.117,10.059Zm-9.766,3.906a.977.977,0,0,0-.977-.977H5.859a.977.977,0,0,0,0,1.953H9.375A.977.977,0,0,0,10.352,13.965ZM4.883,6.055A1.221,1.221,0,1,0,6.1,4.834,1.221,1.221,0,0,0,4.883,6.055Zm19.073,17.9a3.569,3.569,0,0,0,0-5.041l-3.423-3.423a7.04,7.04,0,0,0-3.61-1.932l-2.767-.553a.977.977,0,0,0-1.149,1.149l.553,2.767a7.041,7.041,0,0,0,1.932,3.61l3.423,3.423a3.564,3.564,0,0,0,5.041,0Zm-7.416-8.48a5.093,5.093,0,0,1,2.611,1.4L22.575,20.3A1.611,1.611,0,1,1,20.3,22.575l-3.423-3.423a5.093,5.093,0,0,1-1.4-2.611L15.21,15.21Z" transform="translate(0 -0.108)"/>
  </g>
</svg>
