<svg xmlns="http://www.w3.org/2000/svg" xmlns:xlink="http://www.w3.org/1999/xlink" width="25" height="25" viewBox="0 0 25 25">
  <defs>
    <clipPath id="clip-path">
      <rect id="Rectangle_1303" data-name="Rectangle 1303" width="25" height="25" transform="translate(0 0.227)"/>
    </clipPath>
  </defs>
  <g id="customer_support" data-name="customer support" transform="translate(0 -0.227)" clip-path="url(#clip-path)">
    <g id="Group_2879" data-name="Group 2879" transform="translate(0.833 0.72)">
      <ellipse id="Ellipse_40" data-name="Ellipse 40" cx="0.766" cy="0.766" rx="0.766" ry="0.766" transform="translate(15.292 4.597)"/>
      <ellipse id="Ellipse_41" data-name="Ellipse 41" cx="0.766" cy="0.766" rx="0.766" ry="0.766" transform="translate(17.591 4.597)"/>
      <ellipse id="Ellipse_42" data-name="Ellipse 42" cx="0.766" cy="0.766" rx="0.766" ry="0.766" transform="translate(19.889 4.597)"/>
      <path id="Path_4127" data-name="Path 4127" d="M268.991,39.79a5.7,5.7,0,0,0-.717.046,5.357,5.357,0,0,0-4.585,4.446,5.259,5.259,0,0,0,1.3,4.349c.2.219-.019.811-.472,1.768-.271.572,0,.884.638.884h.034c1.506,0,2.021,0,2.9-.958a5.457,5.457,0,0,0,.894.074c.133,0,.266,0,.4-.015a5.392,5.392,0,0,0,4.96-5.116A5.332,5.332,0,0,0,268.991,39.79Zm.29,9.065c-.1.008-.195.011-.29.011a3.9,3.9,0,0,1-.643-.053,1.55,1.55,0,0,0-.251-.021,1.532,1.532,0,0,0-1.125.493,1.164,1.164,0,0,1-.5.395,2.051,2.051,0,0,0-.34-2.077,3.731,3.731,0,0,1-.926-3.093,3.829,3.829,0,0,1,3.265-3.154,4.132,4.132,0,0,1,.522-.034,3.823,3.823,0,0,1,2.773,1.17,3.713,3.713,0,0,1,1.056,2.726A3.876,3.876,0,0,1,269.282,48.855Z" transform="translate(-250.634 -39.79)"/>
      <path id="Path_4128" data-name="Path 4128" d="M257.27,56.07l-.056-.047a5.363,5.363,0,1,0-7.347.015l-.039.034c-1.842,1.56-2.819,2.574-3.159,6.937a2.131,2.131,0,0,0,1.265,1.853,15.3,15.3,0,0,0,11.231,0,2.136,2.136,0,0,0,1.261-1.912C260.089,58.644,259.112,57.63,257.27,56.07ZM249.7,52.13a3.831,3.831,0,1,1,3.831,3.831A3.835,3.835,0,0,1,249.7,52.13Zm-1.5,10.937c.3-3.866,1.076-4.522,2.618-5.827l.353-.3c.108.054.217.106.329.152l1.267,1.743-1.532,3.511,1.684,2.058a10.034,10.034,0,0,1-4.218-.87C248.551,63.446,248.2,63.222,248.2,63.067Zm10.2.465a10.066,10.066,0,0,1-4.251.872l1.684-2.059L254.3,58.834l1.267-1.743c.119-.048.234-.1.349-.162l.365.31c1.542,1.306,2.315,1.961,2.616,5.768C258.9,63.222,258.548,63.445,258.4,63.532Z" transform="translate(-246.669 -41.422)"/>
      <path id="Path_4129" data-name="Path 4129" d="M255.532,51.032a1.9,1.9,0,0,1,1.9,1.9.383.383,0,0,0,.766,0,2.669,2.669,0,0,0-2.666-2.666.383.383,0,1,0,0,.766Z" transform="translate(-248.652 -42.24)"/>
      <path id="Path_4130" data-name="Path 4130" d="M258.683,62.307a.383.383,0,0,0-.343.686c1.321.66,1.321,2.788,1.321,3.488a.383.383,0,1,0,.766,0C260.426,65.664,260.426,63.179,258.683,62.307Z" transform="translate(-249.348 -45.046)"/>
    </g>
  </g>
</svg>
