<svg xmlns="http://www.w3.org/2000/svg" xmlns:xlink="http://www.w3.org/1999/xlink" width="20" height="20" viewBox="0 0 20 20">
  <defs>
    <clipPath id="clip-path">
      <rect id="Rectangle_1108" data-name="Rectangle 1108" width="20" height="20" transform="translate(0.298 0)" fill="#3b5999"/>
    </clipPath>
  </defs>
  <g id="Mask_Group_323" data-name="Mask Group 323" transform="translate(-0.298 0)" clip-path="url(#clip-path)">
    <g id="search" transform="translate(-0.125 0.049)">
      <path id="Path_55" data-name="Path 55" d="M4.371,13.074l-.687,2.563-2.509.053A9.879,9.879,0,0,1,1.1,6.481h0l2.234.41.979,2.221a5.886,5.886,0,0,0,.055,3.963Z" transform="translate(0 -1.155)" fill="#fbbb00"/>
      <path id="Path_56" data-name="Path 56" d="M21.737,9.758a9.858,9.858,0,0,1-3.516,9.533h0l-2.814-.144-.4-2.486a5.878,5.878,0,0,0,2.529-3H12.264v-3.9h9.473Z" transform="translate(-2.185 -1.739)" fill="#518ef8"/>
      <path id="Path_57" data-name="Path 57" d="M16.29,20.136h0A9.865,9.865,0,0,1,1.43,17.12l3.2-2.616a5.865,5.865,0,0,0,8.452,3Z" transform="translate(-0.255 -2.584)" fill="#28b446"/>
      <path id="Path_58" data-name="Path 58" d="M16.4,2.27,13.2,4.886A5.864,5.864,0,0,0,4.555,7.957L1.342,5.326h0A9.864,9.864,0,0,1,16.4,2.27Z" transform="translate(-0.239)" fill="#f14336"/>
    </g>
  </g>
</svg>
