<svg xmlns="http://www.w3.org/2000/svg" xmlns:xlink="http://www.w3.org/1999/xlink" width="28" height="28" viewBox="0 0 28 28">
  <defs>
    <clipPath id="clip-path">
      <rect id="Rectangle_1190" data-name="Rectangle 1190" width="14" height="14" transform="translate(1638 181)" fill="#2b50ed"/>
    </clipPath>
  </defs>
  <g id="Group_307" data-name="Group 307" transform="translate(-1631 -174)">
    <rect id="Rectangle_1189" data-name="Rectangle 1189" width="28" height="28" rx="5" transform="translate(1631 174)" fill="#eef1fe"/>
    <g id="Mask_Group_346" data-name="Mask Group 346" clip-path="url(#clip-path)">
      <path id="settings_1_" data-name="settings (1)" d="M12.711,5.272h-.3a5.653,5.653,0,0,0-.364-.878l.21-.21a1.289,1.289,0,0,0,0-1.823l-.621-.621a1.289,1.289,0,0,0-1.823,0l-.211.211a5.657,5.657,0,0,0-.878-.364v-.3A1.29,1.29,0,0,0,7.439,0H6.561A1.29,1.29,0,0,0,5.272,1.289v.3a5.652,5.652,0,0,0-.878.364l-.21-.21a1.289,1.289,0,0,0-1.823,0l-.621.621a1.289,1.289,0,0,0,0,1.823l.211.211a5.652,5.652,0,0,0-.364.878h-.3A1.29,1.29,0,0,0,0,6.561v.879A1.29,1.29,0,0,0,1.289,8.728h.3a5.653,5.653,0,0,0,.364.878l-.21.21a1.289,1.289,0,0,0,0,1.823l.621.621a1.289,1.289,0,0,0,1.823,0l.211-.211a5.657,5.657,0,0,0,.878.364v.3A1.29,1.29,0,0,0,6.561,14h.879a1.29,1.29,0,0,0,1.289-1.289v-.3a5.652,5.652,0,0,0,.878-.364l.21.21a1.289,1.289,0,0,0,1.823,0l.621-.621a1.289,1.289,0,0,0,0-1.823l-.211-.211a5.652,5.652,0,0,0,.364-.878h.3A1.29,1.29,0,0,0,14,7.439V6.561a1.29,1.29,0,0,0-1.289-1.289ZM7,10.046A3.046,3.046,0,1,1,10.046,7,3.05,3.05,0,0,1,7,10.046Z" transform="translate(1638 181)" fill="#2b50ed"/>
    </g>
  </g>
</svg>
