<svg xmlns="http://www.w3.org/2000/svg" xmlns:xlink="http://www.w3.org/1999/xlink" width="25" height="25" viewBox="0 0 25 25">
  <defs>
    <clipPath id="clip-path">
      <rect id="Rectangle_1303" data-name="Rectangle 1303" width="25" height="25" transform="translate(0 0.078)"/>
    </clipPath>
  </defs>
  <g id="user" transform="translate(0 -0.078)" clip-path="url(#clip-path)">
    <g id="user_1_" data-name="user (1)" transform="translate(0 0.316)">
      <path id="Path_4085" data-name="Path 4085" d="M12.5,25a12.5,12.5,0,1,1,9.558-4.443,12.631,12.631,0,0,1-1.475,1.479A12.5,12.5,0,0,1,12.5,25Zm0-23.437A10.938,10.938,0,0,0,4.136,19.549a11.065,11.065,0,0,0,1.292,1.295,10.938,10.938,0,0,0,14.144,0,11.065,11.065,0,0,0,1.292-1.3A10.938,10.938,0,0,0,12.5,1.563Z" transform="translate(0 0)"/>
      <path id="Path_4086" data-name="Path 4086" d="M12.5,12.5a4.688,4.688,0,1,1,4.688-4.687A4.693,4.693,0,0,1,12.5,12.5Zm0-7.812a3.125,3.125,0,1,0,3.125,3.125A3.129,3.129,0,0,0,12.5,4.688Z" transform="translate(0 0)"/>
      <path id="Path_4087" data-name="Path 4087" d="M20.078,22.221a.782.782,0,0,1-.758-.972A7.038,7.038,0,0,0,12.6,12.5H12.4A7.038,7.038,0,0,0,5.68,21.249a.781.781,0,0,1-1.515.38,8.6,8.6,0,0,1,8.214-10.692h.244A8.6,8.6,0,0,1,20.835,21.63.782.782,0,0,1,20.078,22.221Z" transform="translate(0 0)"/>
    </g>
  </g>
</svg>
