<svg xmlns="http://www.w3.org/2000/svg" xmlns:xlink="http://www.w3.org/1999/xlink" width="25" height="25" viewBox="0 0 25 25">
  <defs>
    <clipPath id="clip-path">
      <rect id="Rectangle_1303" data-name="Rectangle 1303" width="25" height="25"/>
    </clipPath>
  </defs>
  <g id="Dashboard" clip-path="url(#clip-path)">
    <g id="dashboard-2" data-name="dashboard" transform="translate(0 2.563)">
      <g id="Group_2839" data-name="Group 2839">
        <g id="Group_2838" data-name="Group 2838">
          <path id="Path_4082" data-name="Path 4082" d="M21.247,6.316A.977.977,0,0,0,20.007,6.2c-1.461,1-8.791,6-9.578,6.792a2.93,2.93,0,0,0,4.143,4.143c.788-.788,5.8-8.117,6.792-9.578A.977.977,0,0,0,21.247,6.316Zm-8.057,9.438a.977.977,0,0,1-1.381-1.381c.306-.3,2.387-1.787,4.947-3.566C14.977,13.367,13.493,15.448,13.191,15.754Z" transform="translate(0 -2.563)"/>
          <path id="Path_4083" data-name="Path 4083" d="M4.5,19.606,3.3,20.194a10.5,10.5,0,0,1-.658-8.875l1.381.663a.977.977,0,1,0,.845-1.761L3.5,9.567a10.56,10.56,0,0,1,8.022-5.005V6.03a.977.977,0,0,0,1.953,0V4.561a10.426,10.426,0,0,1,3.358.885.977.977,0,1,0,.8-1.78A12.49,12.49,0,0,0,2.118,22a.976.976,0,0,0,1.24.335l2-.977A.977.977,0,1,0,4.5,19.606Z" transform="translate(0 -2.563)"/>
          <path id="Path_4084" data-name="Path 4084" d="M23.9,9.925a.977.977,0,1,0-1.78.8A10.513,10.513,0,0,1,21.7,20.2l-1.259-.6a.977.977,0,1,0-.84,1.763l2.051.977A.976.976,0,0,0,22.882,22,12.47,12.47,0,0,0,23.9,9.925Z" transform="translate(0 -2.563)"/>
        </g>
      </g>
    </g>
  </g>
</svg>
