<svg xmlns="http://www.w3.org/2000/svg" xmlns:xlink="http://www.w3.org/1999/xlink" width="25" height="25" viewBox="0 0 25 25">
  <defs>
    <clipPath id="clip-path">
      <rect id="Rectangle_1303" data-name="Rectangle 1303" width="25" height="25" transform="translate(0 0.158)"/>
    </clipPath>
  </defs>
  <g id="subcription" transform="translate(0 -0.158)" clip-path="url(#clip-path)">
    <g id="price-tag" transform="translate(0 0.424)">
      <path id="Path_4088" data-name="Path 4088" d="M9.939,16.846,13.392,6.488A.732.732,0,1,0,12,6.025L8.55,16.383a.732.732,0,1,0,1.39.463Z" transform="translate(0 0)"/>
      <path id="Path_4089" data-name="Path 4089" d="M15.114,13.633a2.2,2.2,0,1,0-2.2-2.2A2.2,2.2,0,0,0,15.114,13.633Zm0-2.93a.732.732,0,1,1-.732.732A.733.733,0,0,1,15.114,10.7Z" transform="translate(0 0)"/>
      <path id="Path_4090" data-name="Path 4090" d="M6.827,9.238a2.2,2.2,0,1,0,2.2,2.2A2.2,2.2,0,0,0,6.827,9.238Zm0,2.93a.732.732,0,1,1,.732-.732A.733.733,0,0,1,6.827,12.168Z" transform="translate(0 0)"/>
      <path id="Path_4091" data-name="Path 4091" d="M24.854,9.082,22.3,5.677l.1-.7a.732.732,0,0,0-.207-.621L20.638,2.8,22.192,1.25A.732.732,0,1,0,21.156.215L19.6,1.768,18.049.215a.733.733,0,0,0-.621-.207L10.177,1.043a.732.732,0,0,0-.414.207L.785,10.227a2.689,2.689,0,0,0,0,3.8l7.6,7.6a2.679,2.679,0,0,0,.506.4v.3A2.689,2.689,0,0,0,11.572,25H22.314A2.689,2.689,0,0,0,25,22.314V9.521a.733.733,0,0,0-.146-.439ZM1.821,12.989a1.222,1.222,0,0,1,0-1.726l8.8-8.8,6.646-.949L18.567,2.8,17.531,3.84l-.518-.518a.732.732,0,1,0-1.036,1.036l2.072,2.072a.732.732,0,0,0,1.036-1.036l-.518-.518L19.6,3.84,20.9,5.135l-.95,6.646-8.8,8.8a1.221,1.221,0,0,1-1.726,0Zm21.714,9.325a1.222,1.222,0,0,1-1.221,1.221H11.572A1.222,1.222,0,0,1,10.355,22.4a2.675,2.675,0,0,0,1.824-.783l8.977-8.977a.732.732,0,0,0,.207-.414l.643-4.5,1.529,2.038Z" transform="translate(0 0)"/>
    </g>
  </g>
</svg>
