<svg xmlns="http://www.w3.org/2000/svg" xmlns:xlink="http://www.w3.org/1999/xlink" width="25" height="25" viewBox="0 0 25 25">
  <defs>
    <clipPath id="clip-path">
      <rect id="Rectangle_1303" data-name="Rectangle 1303" width="25" height="25" transform="translate(0 0.068)"/>
    </clipPath>
  </defs>
  <g id="payments" transform="translate(0 -0.068)" clip-path="url(#clip-path)">
    <g id="credit-card_1_" data-name="credit-card (1)" transform="translate(0 2.977)">
      <g id="Group_2841" data-name="Group 2841" transform="translate(16.03 11.9)">
        <g id="Group_2840" data-name="Group 2840">
          <path id="Path_4092" data-name="Path 4092" d="M21.7,15.5a2.114,2.114,0,0,0-2.375,0,2.09,2.09,0,0,0-1.184-.364,2.119,2.119,0,0,0,0,4.239,2.09,2.09,0,0,0,1.184-.364A2.12,2.12,0,1,0,21.7,15.5Zm-.475,2.369a.94.94,0,0,1-1.325.117.815.815,0,0,1-.123-.123.567.567,0,0,0-.451-.205.582.582,0,0,0-.451.211.917.917,0,0,1-.727.34.948.948,0,0,1-.95-.944.942.942,0,0,1,1.671-.6.587.587,0,0,0,.827.088.622.622,0,0,0,.088-.088.941.941,0,0,1,1.442,1.208Z" transform="translate(-16.03 -15.137)"/>
        </g>
      </g>
      <g id="Group_2843" data-name="Group 2843">
        <g id="Group_2842" data-name="Group 2842">
          <path id="Path_4093" data-name="Path 4093" d="M24.977,10.53c0-.053.023-.111.023-.17s-.023-.111-.023-.164V8.941a2.5,2.5,0,0,0-2.509-2.48h-.715V5.752a2.5,2.5,0,0,0-2.474-2.515H2.486A2.5,2.5,0,0,0,0,5.752V16.059a2.475,2.475,0,0,0,2.468,2.48h.7v.709a2.52,2.52,0,0,0,2.5,2.515h16.8a2.529,2.529,0,0,0,2.509-2.515V13.28c0-.053.023-.111.023-.164s-.023-.111-.023-.164ZM3.166,8.941v8.425h-.68a1.3,1.3,0,0,1-1.313-1.284V5.752A1.333,1.333,0,0,1,2.486,4.409h16.8a1.323,1.323,0,0,1,1.3,1.343v.709H5.67A2.49,2.49,0,0,0,3.166,8.941ZM23.8,19.248a1.349,1.349,0,0,1-1.337,1.343H5.67a1.34,1.34,0,0,1-1.331-1.343V13.673H23.8Zm0-6.748H4.339V10.976H23.8Zm.006-2.7H4.339V8.941A1.318,1.318,0,0,1,5.67,7.634h16.8A1.319,1.319,0,0,1,23.81,8.941V9.8Z" transform="translate(0 -3.236)"/>
        </g>
      </g>
    </g>
  </g>
</svg>
